<svg xmlns="http://www.w3.org/2000/svg" xmlns:xlink="http://www.w3.org/1999/xlink" width="1080" zoomAndPan="magnify" viewBox="0 0 810 809.999993" height="1080" preserveAspectRatio="xMidYMid meet" version="1.0"><path fill="#000000" d="M 272.847656 545.105469 C 122.542969 545.105469 0.253906 422.84375 0.253906 272.535156 C 0.253906 122.226562 122.527344 -0.0351562 272.847656 -0.0351562 C 423.167969 -0.0351562 545.441406 122.226562 545.441406 272.535156 C 545.441406 422.84375 423.152344 545.105469 272.847656 545.105469 Z M 272.847656 44.792969 C 269.121094 44.792969 265.394531 44.886719 261.671875 45.070312 C 257.949219 45.253906 254.234375 45.527344 250.523438 45.890625 C 246.8125 46.257812 243.117188 46.710938 239.429688 47.257812 C 235.742188 47.804688 232.070312 48.445312 228.414062 49.171875 C 224.757812 49.898438 221.121094 50.714844 217.507812 51.621094 C 213.890625 52.527344 210.300781 53.519531 206.734375 54.601562 C 203.164062 55.683594 199.628906 56.851562 196.117188 58.109375 C 192.609375 59.363281 189.132812 60.703125 185.6875 62.128906 C 182.246094 63.558594 178.835938 65.066406 175.46875 66.660156 C 172.097656 68.253906 168.769531 69.929688 165.484375 71.6875 C 162.195312 73.441406 158.953125 75.28125 155.757812 77.195312 C 152.558594 79.113281 149.410156 81.105469 146.3125 83.175781 C 143.210938 85.246094 140.164062 87.390625 137.171875 89.613281 C 134.175781 91.832031 131.238281 94.125 128.359375 96.488281 C 125.476562 98.855469 122.65625 101.289062 119.894531 103.789062 C 117.132812 106.292969 114.433594 108.863281 111.796875 111.5 C 109.160156 114.132812 106.59375 116.832031 104.089844 119.59375 C 101.585938 122.355469 99.152344 125.175781 96.789062 128.058594 C 94.421875 130.9375 92.128906 133.875 89.910156 136.871094 C 87.6875 139.863281 85.542969 142.910156 83.472656 146.007812 C 81.402344 149.109375 79.410156 152.257812 77.492188 155.453125 C 75.574219 158.648438 73.738281 161.890625 71.980469 165.179688 C 70.226562 168.464844 68.550781 171.792969 66.957031 175.164062 C 65.363281 178.53125 63.851562 181.9375 62.425781 185.382812 C 61 188.824219 59.65625 192.300781 58.402344 195.8125 C 57.148438 199.320312 55.976562 202.859375 54.894531 206.425781 C 53.8125 209.992188 52.820312 213.582031 51.914062 217.199219 C 51.007812 220.8125 50.191406 224.449219 49.464844 228.105469 C 48.738281 231.761719 48.101562 235.429688 47.554688 239.117188 C 47.007812 242.804688 46.550781 246.503906 46.183594 250.210938 C 45.820312 253.921875 45.546875 257.636719 45.363281 261.359375 C 45.179688 265.082031 45.089844 268.808594 45.089844 272.535156 C 45.089844 276.261719 45.179688 279.988281 45.363281 283.710938 C 45.546875 287.433594 45.820312 291.148438 46.183594 294.855469 C 46.550781 298.566406 47.007812 302.265625 47.554688 305.949219 C 48.101562 309.636719 48.738281 313.308594 49.464844 316.964844 C 50.191406 320.621094 51.007812 324.253906 51.914062 327.871094 C 52.820312 331.484375 53.8125 335.078125 54.894531 338.644531 C 55.976562 342.210938 57.148438 345.75 58.402344 349.257812 C 59.65625 352.765625 61 356.242188 62.425781 359.6875 C 63.851562 363.128906 65.363281 366.535156 66.957031 369.90625 C 68.550781 373.273438 70.226562 376.601562 71.980469 379.890625 C 73.738281 383.175781 75.574219 386.417969 77.492188 389.617188 C 79.410156 392.8125 81.402344 395.960938 83.472656 399.058594 C 85.542969 402.160156 87.6875 405.203125 89.910156 408.199219 C 92.128906 411.191406 94.421875 414.128906 96.789062 417.011719 C 99.152344 419.890625 101.585938 422.714844 104.089844 425.476562 C 106.59375 428.238281 109.160156 430.933594 111.796875 433.570312 C 114.433594 436.207031 117.132812 438.773438 119.894531 441.277344 C 122.65625 443.78125 125.476562 446.214844 128.359375 448.578125 C 131.238281 450.945312 134.175781 453.238281 137.171875 455.457031 C 140.164062 457.675781 143.210938 459.824219 146.3125 461.894531 C 149.410156 463.964844 152.558594 465.957031 155.757812 467.875 C 158.953125 469.789062 162.195312 471.625 165.484375 473.382812 C 168.769531 475.140625 172.097656 476.816406 175.46875 478.410156 C 178.835938 480.003906 182.242188 481.511719 185.6875 482.9375 C 189.132812 484.363281 192.609375 485.707031 196.117188 486.960938 C 199.628906 488.21875 203.164062 489.386719 206.734375 490.46875 C 210.300781 491.550781 213.890625 492.542969 217.507812 493.449219 C 221.121094 494.355469 224.757812 495.171875 228.414062 495.898438 C 232.070312 496.625 235.742188 497.261719 239.429688 497.808594 C 243.117188 498.355469 246.8125 498.8125 250.523438 499.175781 C 254.234375 499.542969 257.949219 499.816406 261.671875 500 C 265.394531 500.183594 269.121094 500.273438 272.847656 500.273438 C 276.574219 500.273438 280.300781 500.183594 284.023438 500 C 287.746094 499.816406 291.460938 499.542969 295.171875 499.175781 C 298.882812 498.8125 302.578125 498.355469 306.265625 497.808594 C 309.953125 497.261719 313.625 496.625 317.28125 495.898438 C 320.9375 495.171875 324.574219 494.355469 328.1875 493.449219 C 331.804688 492.542969 335.394531 491.550781 338.960938 490.46875 C 342.53125 489.386719 346.066406 488.21875 349.578125 486.960938 C 353.085938 485.707031 356.5625 484.363281 360.007812 482.9375 C 363.449219 481.511719 366.859375 480.003906 370.226562 478.410156 C 373.597656 476.816406 376.925781 475.140625 380.210938 473.382812 C 383.5 471.625 386.742188 469.789062 389.9375 467.875 C 393.136719 465.957031 396.285156 463.964844 399.382812 461.894531 C 402.484375 459.824219 405.53125 457.675781 408.523438 455.457031 C 411.515625 453.234375 414.457031 450.945312 417.335938 448.578125 C 420.21875 446.214844 423.039062 443.78125 425.800781 441.277344 C 428.5625 438.777344 431.261719 436.207031 433.898438 433.570312 C 436.535156 430.933594 439.101562 428.238281 441.605469 425.476562 C 444.109375 422.714844 446.542969 419.890625 448.90625 417.011719 C 451.273438 414.128906 453.566406 411.191406 455.785156 408.199219 C 458.007812 405.203125 460.152344 402.160156 462.222656 399.058594 C 464.292969 395.960938 466.285156 392.8125 468.203125 389.617188 C 470.121094 386.417969 471.957031 383.175781 473.714844 379.890625 C 475.46875 376.601562 477.144531 373.273438 478.738281 369.90625 C 480.332031 366.535156 481.84375 363.128906 483.269531 359.6875 C 484.695312 356.242188 486.039062 352.765625 487.292969 349.257812 C 488.546875 345.75 489.71875 342.210938 490.800781 338.644531 C 491.882812 335.078125 492.875 331.484375 493.78125 327.871094 C 494.6875 324.253906 495.503906 320.621094 496.230469 316.964844 C 496.957031 313.308594 497.59375 309.636719 498.140625 305.949219 C 498.6875 302.265625 499.144531 298.566406 499.511719 294.855469 C 499.875 291.148438 500.148438 287.433594 500.332031 283.710938 C 500.515625 279.988281 500.605469 276.261719 500.605469 272.535156 C 500.601562 268.808594 500.507812 265.085938 500.320312 261.363281 C 500.132812 257.644531 499.851562 253.929688 499.484375 250.222656 C 499.113281 246.515625 498.65625 242.820312 498.105469 239.132812 C 497.554688 235.449219 496.914062 231.78125 496.183594 228.128906 C 495.453125 224.472656 494.632812 220.839844 493.722656 217.226562 C 492.816406 213.613281 491.820312 210.023438 490.734375 206.460938 C 489.652344 202.898438 488.480469 199.359375 487.222656 195.855469 C 485.964844 192.347656 484.621094 188.875 483.191406 185.433594 C 481.765625 181.992188 480.253906 178.585938 478.65625 175.21875 C 477.0625 171.851562 475.386719 168.527344 473.628906 165.242188 C 471.871094 161.957031 470.03125 158.71875 468.117188 155.523438 C 466.199219 152.328125 464.203125 149.183594 462.132812 146.085938 C 460.0625 142.988281 457.914062 139.945312 455.695312 136.953125 C 453.476562 133.960938 451.183594 131.023438 448.816406 128.144531 C 446.453125 125.265625 444.019531 122.445312 441.519531 119.6875 C 439.015625 116.925781 436.445312 114.230469 433.8125 111.59375 C 431.175781 108.960938 428.480469 106.390625 425.71875 103.890625 C 422.957031 101.386719 420.136719 98.957031 417.257812 96.59375 C 414.375 94.226562 411.441406 91.9375 408.449219 89.714844 C 405.457031 87.496094 402.410156 85.351562 399.3125 83.28125 C 396.214844 81.210938 393.070312 79.21875 389.875 77.300781 C 386.679688 75.382812 383.4375 73.546875 380.152344 71.789062 C 376.867188 70.03125 373.542969 68.355469 370.171875 66.761719 C 366.804688 65.167969 363.402344 63.65625 359.960938 62.230469 C 356.519531 60.800781 353.042969 59.460938 349.535156 58.203125 C 346.027344 56.945312 342.492188 55.773438 338.929688 54.691406 C 335.363281 53.609375 331.773438 52.613281 328.160156 51.703125 C 324.546875 50.796875 320.914062 49.976562 317.257812 49.246094 C 313.605469 48.515625 309.9375 47.878906 306.25 47.328125 C 302.566406 46.777344 298.871094 46.320312 295.160156 45.949219 C 291.453125 45.582031 287.738281 45.304688 284.019531 45.117188 C 280.296875 44.929688 276.574219 44.835938 272.847656 44.832031 Z M 272.847656 44.792969 " fill-opacity="1" fill-rule="nonzero"/><path fill="#000000" d="M 469.6875 574.566406 C 468.457031 574.566406 467.230469 574.476562 466.011719 574.296875 C 464.792969 574.117188 463.59375 573.847656 462.414062 573.492188 C 461.234375 573.132812 460.085938 572.691406 458.96875 572.164062 C 457.855469 571.640625 456.785156 571.035156 455.761719 570.351562 C 454.734375 569.667969 453.765625 568.914062 452.851562 568.085938 C 451.9375 567.257812 451.085938 566.371094 450.304688 565.417969 C 449.519531 564.46875 448.808594 563.464844 448.175781 562.40625 C 447.539062 561.351562 446.984375 560.253906 446.511719 559.117188 C 446.035156 557.980469 445.648438 556.8125 445.347656 555.617188 C 445.042969 554.421875 444.832031 553.210938 444.707031 551.984375 C 444.582031 550.757812 444.550781 549.53125 444.605469 548.300781 C 444.664062 547.070312 444.8125 545.847656 445.046875 544.636719 C 445.285156 543.429688 445.609375 542.242188 446.019531 541.082031 C 446.429688 539.917969 446.925781 538.792969 447.503906 537.707031 C 448.082031 536.617188 448.734375 535.574219 449.464844 534.582031 C 450.195312 533.589844 450.996094 532.65625 451.863281 531.78125 L 521.285156 461.84375 C 521.847656 461.203125 522.441406 460.59375 523.066406 460.015625 C 523.691406 459.433594 524.347656 458.886719 525.027344 458.375 C 525.707031 457.863281 526.414062 457.382812 527.144531 456.941406 C 527.871094 456.5 528.625 456.097656 529.394531 455.734375 C 530.164062 455.367188 530.953125 455.042969 531.757812 454.757812 C 532.558594 454.472656 533.375 454.230469 534.207031 454.027344 C 535.035156 453.828125 535.871094 453.667969 536.714844 453.550781 C 537.558594 453.4375 538.410156 453.363281 539.261719 453.332031 C 540.113281 453.304688 540.964844 453.316406 541.816406 453.375 C 542.667969 453.429688 543.511719 453.53125 544.355469 453.675781 C 545.195312 453.816406 546.027344 454.003906 546.847656 454.230469 C 547.671875 454.457031 548.476562 454.726562 549.273438 455.039062 C 550.066406 455.347656 550.84375 455.699219 551.601562 456.085938 C 552.359375 456.476562 553.097656 456.902344 553.8125 457.367188 C 554.527344 457.832031 555.21875 458.332031 555.882812 458.867188 C 556.546875 459.402344 557.183594 459.96875 557.789062 460.566406 C 558.394531 461.167969 558.96875 461.796875 559.511719 462.453125 C 560.054688 463.113281 560.5625 463.796875 561.035156 464.507812 C 561.507812 465.214844 561.945312 465.949219 562.34375 466.703125 C 562.742188 467.457031 563.097656 468.226562 563.417969 469.019531 C 563.738281 469.808594 564.015625 470.613281 564.253906 471.433594 C 564.492188 472.253906 564.6875 473.082031 564.839844 473.921875 C 564.992188 474.761719 565.101562 475.605469 565.167969 476.453125 C 565.238281 477.304688 565.261719 478.15625 565.238281 479.007812 C 565.21875 479.863281 565.15625 480.710938 565.050781 481.558594 C 564.945312 482.402344 564.792969 483.242188 564.601562 484.074219 C 564.410156 484.902344 564.175781 485.722656 563.902344 486.53125 C 563.625 487.335938 563.3125 488.128906 562.953125 488.902344 C 562.597656 489.675781 562.203125 490.433594 561.769531 491.167969 C 561.339844 491.902344 560.867188 492.613281 560.363281 493.300781 C 559.859375 493.988281 559.320312 494.644531 558.746094 495.277344 C 558.175781 495.910156 557.570312 496.511719 556.9375 497.082031 L 487.515625 567.019531 C 486.351562 568.207031 485.085938 569.269531 483.714844 570.203125 C 482.339844 571.140625 480.890625 571.933594 479.359375 572.578125 C 477.828125 573.226562 476.25 573.71875 474.621094 574.054688 C 472.996094 574.386719 471.351562 574.558594 469.6875 574.566406 Z M 469.6875 574.566406 " fill-opacity="1" fill-rule="nonzero"/><path fill="#000000" d="M 770.941406 809.980469 C 768.070312 809.988281 765.230469 809.707031 762.417969 809.144531 C 759.605469 808.578125 756.878906 807.742188 754.234375 806.628906 C 751.589844 805.515625 749.082031 804.152344 746.710938 802.539062 C 744.339844 800.921875 742.152344 799.089844 740.148438 797.035156 L 555.429688 607.886719 C 554.445312 606.878906 553.511719 605.824219 552.628906 604.722656 C 551.75 603.621094 550.921875 602.480469 550.152344 601.300781 C 549.382812 600.121094 548.671875 598.902344 548.023438 597.652344 C 547.375 596.402344 546.785156 595.121094 546.261719 593.8125 C 545.738281 592.503906 545.277344 591.171875 544.886719 589.820312 C 544.492188 588.464844 544.164062 587.097656 543.90625 585.710938 C 543.648438 584.324219 543.457031 582.929688 543.335938 581.523438 C 543.214844 580.121094 543.160156 578.714844 543.175781 577.304688 C 543.191406 575.894531 543.277344 574.488281 543.433594 573.085938 C 543.585938 571.683594 543.808594 570.296875 544.101562 568.914062 C 544.394531 567.535156 544.75 566.175781 545.175781 564.832031 C 545.601562 563.484375 546.089844 562.164062 546.644531 560.871094 C 547.199219 559.574219 547.816406 558.308594 548.496094 557.074219 C 549.175781 555.835938 549.914062 554.636719 550.710938 553.472656 C 551.507812 552.3125 552.359375 551.191406 553.265625 550.109375 C 554.171875 549.03125 555.128906 548 556.140625 547.015625 C 557.148438 546.027344 558.203125 545.097656 559.300781 544.214844 C 560.402344 543.332031 561.542969 542.507812 562.722656 541.738281 C 563.90625 540.96875 565.121094 540.257812 566.371094 539.609375 C 567.625 538.957031 568.902344 538.371094 570.210938 537.847656 C 571.523438 537.320312 572.851562 536.863281 574.207031 536.46875 C 575.5625 536.078125 576.929688 535.75 578.316406 535.492188 C 579.703125 535.230469 581.097656 535.042969 582.503906 534.921875 C 583.90625 534.796875 585.3125 534.746094 586.722656 534.761719 C 588.132812 534.777344 589.539062 534.863281 590.941406 535.019531 C 592.34375 535.171875 593.734375 535.394531 595.113281 535.6875 C 596.492188 535.976562 597.851562 536.335938 599.199219 536.761719 C 600.542969 537.183594 601.863281 537.675781 603.160156 538.230469 C 604.453125 538.785156 605.722656 539.402344 606.957031 540.082031 C 608.191406 540.757812 609.390625 541.496094 610.554688 542.292969 C 611.71875 543.089844 612.839844 543.941406 613.917969 544.851562 C 614.996094 545.757812 616.03125 546.714844 617.015625 547.722656 L 801.734375 736.871094 C 803.203125 738.378906 804.558594 739.984375 805.792969 741.691406 C 807.03125 743.394531 808.136719 745.179688 809.109375 747.046875 C 810.082031 748.914062 810.914062 750.84375 811.605469 752.832031 C 812.296875 754.824219 812.835938 756.851562 813.230469 758.921875 C 813.621094 760.988281 813.863281 763.078125 813.949219 765.179688 C 814.035156 767.285156 813.964844 769.382812 813.746094 771.476562 C 813.523438 773.574219 813.148438 775.640625 812.625 777.679688 C 812.097656 779.71875 811.425781 781.707031 810.609375 783.648438 C 809.792969 785.589844 808.839844 787.460938 807.746094 789.261719 C 806.652344 791.0625 805.4375 792.773438 804.09375 794.394531 C 802.75 796.015625 801.296875 797.53125 799.730469 798.941406 C 798.164062 800.347656 796.503906 801.636719 794.75 802.800781 C 792.996094 803.964844 791.164062 804.996094 789.257812 805.890625 C 787.351562 806.789062 785.390625 807.539062 783.375 808.148438 C 781.359375 808.757812 779.308594 809.214844 777.226562 809.519531 C 775.140625 809.828125 773.046875 809.980469 770.941406 809.980469 Z M 770.941406 809.980469 " fill-opacity="1" fill-rule="nonzero"/><path fill="#000000" d="M 272.398438 464.515625 C 237.285156 464.515625 190.871094 454.457031 141.195312 416.242188 C 97.582031 382.710938 77.476562 331.117188 83.035156 267.082031 C 84.371094 252.363281 86.808594 237.824219 90.355469 223.476562 C 93.898438 209.125 98.507812 195.125 104.179688 181.472656 C 104.542969 180.671875 104.984375 179.914062 105.496094 179.199219 C 106.007812 178.484375 106.585938 177.828125 107.226562 177.226562 C 107.871094 176.625 108.566406 176.089844 109.3125 175.625 C 110.058594 175.160156 110.84375 174.769531 111.667969 174.460938 C 112.488281 174.148438 113.335938 173.921875 114.203125 173.773438 C 115.070312 173.628906 115.945312 173.570312 116.824219 173.597656 C 117.703125 173.621094 118.574219 173.734375 119.429688 173.929688 C 120.289062 174.125 121.117188 174.40625 121.921875 174.765625 C 122.726562 175.125 123.484375 175.558594 124.203125 176.066406 C 124.921875 176.574219 125.582031 177.148438 126.1875 177.789062 C 126.792969 178.425781 127.332031 179.117188 127.800781 179.863281 C 128.269531 180.605469 128.664062 181.390625 128.980469 182.210938 C 129.296875 183.03125 129.527344 183.875 129.679688 184.742188 C 129.828125 185.609375 129.894531 186.484375 129.871094 187.363281 C 129.851562 188.242188 129.742188 189.113281 129.550781 189.972656 C 129.359375 190.828125 129.085938 191.660156 128.730469 192.46875 C 123.660156 204.855469 119.535156 217.550781 116.355469 230.554688 C 113.179688 243.558594 110.988281 256.726562 109.777344 270.058594 C 105.183594 324.933594 121.269531 366.894531 157.585938 394.867188 C 247.257812 463.871094 323.921875 428.222656 324.695312 427.84375 C 325.492188 427.441406 326.324219 427.117188 327.183594 426.878906 C 328.046875 426.636719 328.925781 426.488281 329.816406 426.421875 C 330.710938 426.355469 331.601562 426.382812 332.488281 426.496094 C 333.375 426.609375 334.246094 426.808594 335.09375 427.09375 C 335.941406 427.382812 336.75 427.75 337.527344 428.195312 C 338.300781 428.644531 339.023438 429.164062 339.695312 429.757812 C 340.363281 430.351562 340.96875 431.003906 341.511719 431.71875 C 342.050781 432.433594 342.515625 433.191406 342.902344 433.996094 C 343.292969 434.804688 343.597656 435.640625 343.820312 436.507812 C 344.039062 437.375 344.171875 438.253906 344.21875 439.148438 C 344.265625 440.042969 344.222656 440.933594 344.089844 441.816406 C 343.957031 442.703125 343.738281 443.566406 343.4375 444.410156 C 343.132812 445.25 342.746094 446.054688 342.28125 446.816406 C 341.816406 447.582031 341.28125 448.292969 340.675781 448.953125 C 340.070312 449.609375 339.402344 450.203125 338.679688 450.726562 C 337.953125 451.253906 337.183594 451.699219 336.371094 452.070312 C 334.449219 453.058594 309.863281 464.515625 272.398438 464.515625 Z M 272.398438 464.515625 " fill-opacity="1" fill-rule="nonzero"/></svg>